<svg xmlns="http://www.w3.org/2000/svg" version="1.1" width="18" height="22" viewBox="0,0,18,22" id="svg5" sodipodi:docname="favicon.svg" inkscape:version="1.4.4 (dcaf3e7, 2026-05-05)" xmlns:inkscape="http://www.inkscape.org/namespaces/inkscape" xmlns:sodipodi="http://sodipodi.sourceforge.net/DTD/sodipodi-0.dtd" xmlns:svg="http://www.w3.org/2000/svg"><metadata><rdf:RDF xmlns:rdf="http://www.w3.org/1999/02/22-rdf-syntax-ns#" xmlns:dc="http://purl.org/dc/elements/1.1/"><rdf:Description><dc:creator>RealFaviconGenerator</dc:creator><dc:source>https://realfavicongenerator.net</dc:source></rdf:Description></rdf:RDF></metadata><defs id="defs5"></defs><sodipodi:namedview id="namedview5" pagecolor="#505050" bordercolor="#eeeeee" borderopacity="1" inkscape:showpageshadow="0" inkscape:pageopacity="0" inkscape:pagecheckerboard="0" inkscape:deskcolor="#505050" inkscape:zoom="45.863636" inkscape:cx="9.0049554" inkscape:cy="11" inkscape:window-width="3653" inkscape:window-height="2102" inkscape:window-x="100" inkscape:window-y="30" inkscape:window-maximized="0" inkscape:current-layer="svg5"></sodipodi:namedview><g transform="translate(-231,-169)" id="g5">
    <g fill="none" stroke="#ffffff" stroke-width="2" stroke-linecap="round" stroke-linejoin="round" stroke-miterlimit="10" id="g4">
      <path style="baseline-shift:baseline;display:inline;overflow:visible;vector-effect:none;fill:#ffffff;stroke:none;stroke-linecap:butt;stroke-linejoin:miter;enable-background:accumulate;stop-color:#000000;stop-opacity:1;opacity:1" d="m 234,169 c -1.64501,0 -3,1.35499 -3,3 v 10.34961 a 1,1 0 0 0 1,1 1,1 0 0 0 1,-1 V 172 c 0,-0.56413 0.43587,-1 1,-1 h 8 a 1.0001,1.0001 0 0 0 0.002,0 c 0.37377,-9.2e-4 0.73229,0.14735 0.9961,0.41211 a 1.0001,1.0001 0 0 0 0,0.002 l 3.58789,3.58789 a 1.0001,1.0001 0 0 0 0.002,0 c 0.26476,0.26381 0.41303,0.62233 0.41211,0.9961 a 1.0001,1.0001 0 0 0 0,0.002 v 12 c 0,0.56413 -0.43587,1 -1,1 h -6.34961 a 1,1 0 0 0 -1,1 1,1 0 0 0 1,1 H 246 c 1.64501,0 3,-1.35499 3,-3 V 176.00195 176 c 0.002,-0.90565 -0.3584,-1.77479 -1,-2.41406 L 244.41406,170 c -0.63927,-0.6416 -1.50841,-1.0017 -2.41406,-1 z" id="path1"></path>
      <path style="baseline-shift:baseline;display:inline;overflow:visible;vector-effect:none;fill:#ffffff;stroke:none;stroke-linecap:butt;stroke-linejoin:miter;enable-background:accumulate;stop-color:#000000;stop-opacity:1;opacity:1" d="m 242,169 a 1,1 0 0 0 -1,1 v 5 c 0,1.09273 0.90727,2 2,2 h 5 a 1,1 0 0 0 1,-1 1,1 0 0 0 -1,-1 h -5 v -5 a 1,1 0 0 0 -1,-1 z" id="path2"></path>
      <path style="baseline-shift:baseline;display:inline;overflow:visible;vector-effect:none;fill:#ffffff;stroke:none;stroke-linecap:butt;stroke-linejoin:miter;enable-background:accumulate;stop-color:#000000;stop-opacity:1;opacity:1" d="M 236.44141,180.10156 A 1.0001,1.0001 0 0 0 235,181 v 7 a 1,1 0 0 0 1,1 1,1 0 0 0 1,-1 v -5.39453 l 1.55859,0.76562 a 1,1 0 0 0 1.33985,-0.45703 1,1 0 0 0 -0.45703,-1.33789 z" id="path3"></path>
      <path style="baseline-shift:baseline;display:inline;overflow:visible;vector-effect:none;fill:#ffffff;stroke:none;stroke-linecap:butt;stroke-linejoin:miter;enable-background:accumulate;stop-color:#000000;stop-opacity:1;opacity:1" d="m 234,185 c -1.64501,0 -3,1.35499 -3,3 0,1.64501 1.35499,3 3,3 1.64501,0 3,-1.35499 3,-3 0,-1.64501 -1.35499,-3 -3,-3 z m 0,2 c 0.56413,0 1,0.43587 1,1 0,0.56413 -0.43587,1 -1,1 -0.56413,0 -1,-0.43587 -1,-1 0,-0.56413 0.43587,-1 1,-1 z" id="path4"></path>
    </g>
  </g><style>@media (prefers-color-scheme: light) { :root { filter: contrast(1) brightness(0.1); } }
@media (prefers-color-scheme: dark) { :root { filter: none; } }
</style></svg>